<?xml version="1.0" encoding="utf-8"?>
<svg
  xmlns="http://www.w3.org/2000/svg"
  viewBox="0 0 122.88 107.25"
  width="24"
  height="24"
  fill="none"
>
  <style>
    .st0,.st2,.st3,.st4,.st5,.st6 {
      fill: rgb(230 81 0);
    }
    .st5,.st6 {
      fill-rule: evenodd;
      clip-rule: evenodd;
    }
    .st7 {
      fill: #ffffff;
    }
  </style>

  <g>
    <path class="st0" d="M10.43,26.86h99c2.35,0,4.26,1.91,4.26,4.26v71.88c0,2.35-1.91,4.26-4.26,4.26h-99c-2.35,0-4.26-1.91-4.26-4.26V31.12C6.17,28.76,8.08,26.86,10.43,26.86z"/>

    <polygon class="st2" points="30.72,40.32 61.44,40.32 61.44,0 35.32,0 30.72,40.32"/>

    <path class="st3" d="M92.16,40.32H61.44V0h26.12L92.16,40.32z"/>

    <path class="st4" d="M113.73,7.78C112.72,3.18,108.77,0,104.21,0H87.56l4.6,40.32h30.72L113.73,7.78z"/>

    <path class="st5" d="M30.78,40.31c0,8.48-6.87,15.35-15.35,15.35C6.95,55.66,0.08,48.79,0.08,40.31H30.78z"/>

    <path class="st6" d="M61.48,40.31c0,8.48-6.87,15.35-15.35,15.35-8.48,0-15.35-6.87-15.35-15.35H61.48z"/>

    <path class="st5" d="M92.18,40.31c0,8.48-6.87,15.35-15.35,15.35-8.48,0-15.35-6.87-15.35-15.35H92.18z"/>

    <path class="st6" d="M122.88,40.31c0,8.48-6.87,15.35-15.35,15.35-8.48,0-15.35-6.87-15.35-15.35H122.88z"/>

    <!-- GMB "G" mark (kept white for contrast) -->
    <path class="st7" d="M107.53,81.9c-0.05-0.73-0.14-1.4-0.27-2.25H90.51v7.24h9.7c-0.42,2.21-1.7,4.16-3.55,5.42-1.19,0.78-2.53,1.3-3.93,1.53-1.4,0.23-2.83,0.23-4.25-0.02-1.42-0.29-2.77-0.88-3.96-1.72-1.75-1.24-3.11-2.98-3.89-4.98-0.38-1.11-0.57-2.29-0.57-3.46s0.19-2.34,0.57-3.45c0.53-1.57,1.42-3.01,2.58-4.19 2.72-2.82,6.79-3.88,10.55-2.75 1.44,0.44,2.75,1.22,3.84,2.26l5-5c-1.66-1.55-3.61-2.76-5.73-3.55-4.07-1.47-8.5-1.41-12.39,0.16-4.2,1.58-7.65,4.68-9.68,8.68-0.71,1.41-1.24,2.92-1.55,4.48-1.85,9.21,3.77,18.28,12.84,20.72 2.97,0.79,6.12,0.77,9.11,0.1 2.71-0.61,5.23-1.92,7.29-3.79 2.15-1.98,3.7-4.62,4.5-7.42 0.52-1.84,0.79-3.75,0.79-5.66 0-0.56-0.03-1.12-0.07-1.67z"/>
  </g>
</svg>
